<svg xmlns="http://www.w3.org/2000/svg" viewBox="0 0 117.19149 23.73404">
  <defs>
    <style>
      .a {
        fill: #65666e;
      }

      .b {
        fill: #9c9c9e;
      }

      .c {
        fill: #c6c6c5;
      }

      .d {
        fill: #7b7662;
      }

      .e {
        fill: #43444c;
      }

      .f {
        fill: #323442;
      }

      .g {
        fill: #615f5a;
      }

      .h {
        fill: #f0f0f3;
      }

      .i {
        fill: #ffcd34;
      }

      .j, .k, .p, .q {
        fill: none;
        stroke-miterlimit: 10;
        stroke-width: 0.25px;
      }

      .j, .k {
        stroke: #fffffb;
      }

      .k {
        stroke-dasharray: 7.67202 7.67202;
      }

      .l {
        fill: #7d7d7f;
      }

      .m {
        fill: #909091;
      }

      .n {
        fill: #a7a7af;
      }

      .o {
        fill: #fffffb;
      }

      .p {
        stroke: #3d3d3f;
      }

      .q {
        stroke: #ffcd34;
      }

      .r {
        fill: #929293;
      }
    </style>
  </defs>
  <g>
    <polygon class="a" points="17.149 19.191 17.149 16.17 10.979 16.17 2.638 17.149 0.723 8.511 8.426 7.915 8.298 4.894 15.277 4.681 17.149 2.34 58.649 2.34 63.617 1.277 67.574 1.277 67.957 2.255 76.213 2.255 79.191 1.787 81.319 7.574 114.426 8.936 114.426 9.234 117.191 9.66 117.191 10.234 114.468 10.234 114.426 14 117.191 14 117.191 14.766 114.426 15.064 114.34 15.447 84.426 16.851 76.809 21.66 44.766 21.66 44.766 21.362 46.468 21.362 46.596 19.787 46.596 16.824 49.005 16.824 49.021 16.202 46.564 16.202 45.96 16.085 45.894 15.245 45.128 15.096 44.218 15.388 43.628 14.957 43.133 15.372 43.133 16.218 41.298 16.25 39.83 16.936 39.83 17.66 38.766 17.66 38.766 18.255 39.872 18.255 39.872 21.447 40.511 21.447 40.511 21.66 26.936 21.66 26.596 19.489 17.149 19.191"/>
    <polygon class="b" points="26.936 21.66 26.936 22.106 77.011 22.106 84.447 17.16 101.362 16.585 102.543 16.298 105.957 16.298 106.404 16.521 110.553 16.138 110.936 15.915 114.606 15.755 114.926 15.532 114.926 15.01 114.426 15.064 114.34 15.447 84.426 16.851 76.809 21.66 44.766 21.66 26.936 21.66"/>
    <polygon class="c" points="39.872 21.447 40.511 21.447 40.511 22.633 42.878 22.633 42.878 22.25 43.803 22.25 44.066 22.513 44.426 22.513 44.773 22.166 44.773 21.356 41.856 21.356 41.856 21.229 41.09 21.229 41.09 21.356 39.941 21.356 39.872 21.447"/>
    <polygon class="a" points="36.144 22.106 36.144 22.809 36.479 22.809 36.479 22.633 37.133 22.633 37.133 22.266 37.356 22.266 37.356 22.394 39.872 22.394 39.872 22.106 36.144 22.106"/>
    <rect class="a" x="45.81383" y="22.10638" width="2.4734" height="0.25532"/>
    <rect class="d" x="75.02128" y="8.70213" width="0.87234" height="2.95745"/>
    <polygon class="d" points="75.457 14.511 75.787 17.851 76.745 17.851 76.426 14.511 75.457 14.511"/>
    <rect class="e" x="75.89362" y="9.55319" width="3.17021" height="1.04255"/>
    <polygon class="e" points="76.517 15.467 79.574 15.34 79.723 16.404 76.615 16.49 76.517 15.467"/>
    <polygon class="f" points="79.643 15.832 81.553 15.489 113.106 14.149 113.106 14.511 81.085 15.915 81.149 15.745 79.643 15.832"/>
    <polygon class="f" points="112.787 10.33 80.553 10.33 80.362 10.074 79.064 10.074 80.617 9.883 112.787 9.883 112.787 10.33"/>
    <polygon class="a" points="50.106 1.957 49.66 0 50.511 0 51.085 0.511 51.979 1.957 51.085 1.957 50.819 0.872 50.298 0.362 50.17 0.617 50.574 1.957 50.106 1.957"/>
    <polygon class="a" points="51.979 1.957 52.34 1.277 53.021 1.277 53.404 1.617 53.106 1.957 51.979 1.957"/>
    <polygon class="b" points="13.83 16.17 13.83 16.66 12.915 17.021 12.915 17.17 11.085 17.277 10.383 16.894 9.191 16.979 1.979 17.872 0 8.064 1.809 7.915 2.191 7.723 3.128 7.723 3.213 7.574 3.872 7.574 4.191 7.83 7.915 7.574 7.915 4.34 11.617 4.34 11.98 4.781 8.298 4.894 8.426 7.915 0.723 8.511 2.638 17.149 10.979 16.17 13.83 16.17"/>
    <polygon class="c" points="0.84 7.995 0.84 6.809 2.223 6.755 1.904 7.128 1.17 7.128 1.202 7.67 1.926 7.649 2.191 7.723 1.809 7.915 0.84 7.995"/>
    <polygon class="c" points="3.128 7.723 2.191 7.723 1.926 7.649 1.904 7.128 2.223 6.755 3.511 6.755 3.511 6.617 5.309 6.617 5.309 6.521 7.362 6.521 7.362 6.404 7.628 6.42 7.723 4.713 7.915 4.34 7.915 6.404 7.915 7.574 4.191 7.83 3.872 7.574 3.213 7.574 3.128 7.723"/>
    <polygon class="b" points="3.973 6.617 3.553 6.085 3.404 5.447 3.527 4.665 4.169 4.007 5.553 3.883 6.463 4.186 6.798 4.649 7.723 4.713 7.628 6.42 7.362 6.404 7.362 6.521 5.309 6.521 5.309 6.617 3.973 6.617"/>
    <polygon class="b" points="13.363 4.739 13.363 4.34 14.83 4.34 17.064 1.979 27.809 1.979 28.319 1.574 30.085 1.574 30.702 2 32.745 2 33.298 1.617 34.872 1.617 35.266 2.011 37.277 2.011 38.128 1.574 39.979 1.574 40.383 1.979 44.936 1.979 45.596 1.617 46.596 1.617 47.255 1.957 48 1.957 48.468 1.617 49.426 1.617 50.106 1.957 50.574 1.957 51.085 1.957 51.979 1.957 53.106 1.957 53.426 1.638 53.915 1.638 54.255 1.957 55.957 1.957 56.447 1.617 57.936 1.574 58.649 1.957 59.17 1.957 59.745 1.383 60.447 1.383 61.067 1.823 58.649 2.34 17.149 2.34 15.277 4.681 13.363 4.739"/>
    <polygon class="g" points="43.149 7.074 40.045 7.497 40.232 8.545 43.468 8.074 43.149 7.074"/>
    <polygon class="f" points="43.345 7.69 44.773 7.266 77.479 3.5 80.011 3.5 77.479 3.915 45.096 7.69 43.345 7.69"/>
    <polygon class="a" points="54.255 1.957 54.367 1.277 54.527 1.186 55.835 1.186 55.835 1.957 55.532 1.952 55.388 1.572 54.782 1.572 54.654 1.957 54.255 1.957"/>
    <polygon class="a" points="54.527 1.186 54.527 0.356 55.133 0.356 55.133 0.771 54.83 0.771 54.83 1.043 55.133 1.043 55.133 1.186 54.527 1.186"/>
    <polygon class="a" points="55.133 1.043 55.452 1.043 55.452 0.771 55.133 0.771 55.133 0.356 55.644 0.356 55.835 0.532 55.835 1.186 55.133 1.186 55.133 1.043"/>
    <polygon class="c" points="67.574 1.277 67.979 1.277 68.383 2.255 67.957 2.255 67.574 1.277"/>
    <polygon class="b" points="68.26 1.957 75.532 1.957 78.638 1.383 78.638 1.874 76.213 2.255 68.383 2.255 68.26 1.957"/>
    <rect class="a" x="69.57447" y="1.38298" width="0.34043" height="0.57447"/>
    <polygon class="a" points="70.213 1.957 70.213 1.766 70.809 1.766 70.809 1.572 73.319 1.572 73.319 1.957 70.213 1.957"/>
    <polygon class="b" points="79.191 1.787 79.809 1.67 81.872 7.277 82.404 7.149 84.468 7.128 85.064 7.532 87.021 7.532 91.872 7.69 99.447 7.809 99.681 7.979 104.511 8.213 106.83 8.213 107.128 8.319 108.043 8.106 109.298 8.191 110.128 8.213 110.298 8.468 112.574 8.468 112.574 8.638 114.447 8.638 114.926 8.809 114.926 9.311 114.426 9.234 114.426 8.936 81.319 7.574 79.191 1.787"/>
    <polygon class="c" points="91.899 16.906 91.899 17.782 92.186 18.293 92.633 18.558 93.878 18.558 97.279 16.724 91.899 16.906"/>
    <g>
      <rect class="f" x="92.56915" y="17.10582" width="1.59574" height="1.07032"/>
      <rect class="f" x="93.2234" y="18.03723" width="0.28723" height="0.95745"/>
      <circle class="h" cx="93.35106" cy="17.64098" r="0.61531"/>
    </g>
    <polygon class="c" points="114.926 14 114.926 10.234 114.468 10.234 114.426 14 114.926 14"/>
    <polygon class="i" points="3.686 16.378 2.505 10.84 2.872 10.84 4.101 16.378 3.686 16.378"/>
    <g>
      <line class="j" x1="3.4867" y1="13.60904" x2="7.45349" y2="13.09469"/>
      <line class="k" x1="15.06182" y1="12.10815" x2="72.12432" y2="4.70913"/>
      <line class="j" x1="75.92848" y1="4.21588" x2="79.89527" y2="3.70152"/>
    </g>
    <polygon class="l" points="2.505 16.549 3.686 16.378 2.505 10.84 1.289 11.064 2.505 16.549"/>
    <polygon class="m" points="2.505 10.84 2.045 8.408 0.723 8.511 1.289 11.064 2.505 10.84"/>
    <rect class="d" x="35.58511" y="2.89362" width="0.98936" height="1.30851"/>
    <rect class="e" x="36.57447" y="3.06109" width="3.29787" height="0.94955"/>
    <polygon class="f" points="39.872 3.5 41.138 3.277 74.745 3.277 74.745 3.548 41.074 3.536 39.872 3.5"/>
    <polygon class="c" points="46.553 21.383 46.553 16 46.085 16 46.085 15.362 45.675 14.952 44.574 14.952 44.125 15.401 44.125 17 44.447 17 44.447 15.511 44.748 15.209 45.553 15.209 45.813 15.469 45.813 16.298 46.234 16.298 46.234 21.383 46.553 21.383"/>
    <rect class="b" x="46.55319" y="16.21809" width="2.45213" height="0.60638"/>
    <polygon class="b" points="46.234 16.824 45.686 16.824 45.686 18.167 45.878 18.167 45.878 19.186 45.686 19.186 45.686 20.495 46.234 20.495 46.234 16.824"/>
    <polyline class="c" points="43.989 18.66 43.989 18.915 43.415 18.915 43.415 19.638 42.862 19.638 42.862 18.915 41.691 18.915 41.691 18.66"/>
    <polyline class="c" points="43.989 18.782 43.989 18.527 43.415 18.527 43.415 17.803 42.862 17.803 42.862 18.527 41.691 18.527 41.691 18.782"/>
    <polygon class="b" points="43.415 18.915 43.415 19.378 44.053 19.378 44.404 19 44.404 18.436 44.043 17.872 43.66 17.872 43.415 18.064 43.415 18.527 43.989 18.527 43.989 18.915 43.415 18.915"/>
    <polygon class="b" points="43.234 19.638 43.234 21.356 42.84 21.356 42.862 19.638 43.234 19.638"/>
    <polygon class="n" points="43.234 19.638 43.234 21.356 44.773 21.356 46.234 21.383 46.234 20.495 45.686 20.495 45.686 19.186 45.878 19.186 45.878 18.167 45.686 18.167 45.686 16.824 46.234 16.824 46.234 16.298 45.813 16.298 45.813 15.469 45.553 15.209 44.748 15.209 44.447 15.511 44.447 17 44.125 17 43.298 17 43.298 17.803 43.415 17.803 43.415 18.064 43.66 17.872 44.043 17.872 44.404 18.436 44.404 19 44.053 19.378 43.415 19.378 43.415 19.638 43.234 19.638"/>
    <rect class="b" x="44.66489" y="17.94149" width="0.55851" height="1.43617"/>
    <polygon class="b" points="46.553 19.801 47.779 19.904 48.152 20.144 48.287 20.431 48.181 20.851 47.915 21.085 47.511 21.269 46.553 21.269 46.553 19.801"/>
    <polygon class="n" points="42.847 20.399 42.322 19.984 41.074 19.378 41.234 18.782 41.074 18.021 41.964 17.622 42.543 17.287 42.854 16.824 42.862 17.803 42.862 18.527 41.691 18.527 41.691 18.915 42.862 18.915 42.862 19.638 42.847 20.399"/>
    <polygon class="c" points="42.862 17.803 43.298 17.803 43.298 17 43.298 16.218 43.133 16.218 42.84 16.218 42.854 16.824 42.862 17.803"/>
    <rect class="b" x="43.29787" y="16.21809" width="0.82696" height="0.78191"/>
    <polygon class="b" points="26.319 20.532 26.319 19.383 17.149 19.085 17.149 16.17 16.532 16.17 16.532 19.723 19.447 19.723 19.447 20.128 22.681 20.128 22.681 20.255 25.277 20.255 25.532 20.702 25.957 20.702 26.319 20.532"/>
    <polygon class="c" points="17.128 19.723 17.128 20.043 19.128 20.043 19.128 20.277 18.511 20.277 18.511 20.404 19.128 20.404 19.372 20.649 19.596 20.489 25.423 20.489 25.277 20.255 22.681 20.255 22.681 20.128 19.447 20.128 19.447 19.723 17.128 19.723"/>
    <polygon class="c" points="26.319 19.383 26.319 20.532 26.319 21.755 26.936 21.755 26.936 21.66 26.936 20.649 26.824 20.649 26.824 19.383 26.319 19.383"/>
    <polygon class="b" points="42.847 20.819 42.128 20.819 42.128 20.535 39.872 20.535 39.872 20.677 40.5 20.677 40.5 20.936 41.426 20.936 41.426 20.735 41.968 20.735 41.968 20.989 42.847 20.989 42.847 20.819"/>
    <polygon class="n" points="42.84 21.356 42.847 20.989 41.968 20.989 41.968 20.735 41.426 20.735 41.426 20.936 40.5 20.936 40.5 20.677 39.872 20.677 39.872 21.447 39.941 21.356 41.09 21.356 41.09 21.229 41.856 21.229 41.856 21.356 42.84 21.356"/>
    <polygon class="c" points="42.847 20.819 42.128 20.819 42.128 20.535 39.872 20.535 39.872 19.149 40.787 19.378 40.612 19.569 40.644 19.904 40.931 19.984 40.947 19.638 41.074 19.378 42.322 19.984 42.847 20.399 42.847 20.819"/>
    <polygon class="b" points="40.644 19.904 40.612 19.569 40.787 19.378 40.787 18.707 40.699 17.941 40.699 17.407 40.923 17.407 41.13 17.75 42.375 17.287 42.854 16.824 42.543 17.287 41.964 17.622 41.074 18.021 41.234 18.782 41.074 19.378 40.947 19.638 40.931 19.984 40.644 19.904"/>
    <g>
      <rect class="f" x="4.1117" y="4.82918" width="1.59574" height="1.07032" transform="translate(9.81915 10.72868) rotate(-179.99997)"/>
      <rect class="f" x="4.76596" y="4.01064" width="0.28723" height="0.95745" transform="translate(9.81915 8.97873) rotate(-179.99997)"/>
      <circle class="h" cx="4.92553" cy="5.36434" r="0.61531"/>
    </g>
    <polygon class="a" points="64.261 22.106 64.261 22.84 64.5 22.92 64.5 23.734 65.122 23.734 65.122 23.351 64.787 23.351 64.787 23.096 65.122 23.096 65.122 22.473 64.691 22.441 64.691 22.106 64.261 22.106"/>
    <polygon class="a" points="65.122 22.473 65.457 22.473 65.457 22.106 65.872 22.106 65.872 23.479 65.553 23.734 65.122 23.734 65.122 23.351 65.497 23.351 65.497 23.048 65.122 23.096 65.122 22.473"/>
    <rect class="a" x="61.5" y="22.10638" width="2.48936" height="0.23936"/>
    <polygon class="a" points="60.973 22.106 60.814 22.617 60.447 22.226 60.447 22.106 60.973 22.106"/>
    <rect class="a" x="59.45745" y="22.10638" width="0.38298" height="0.23936"/>
    <polygon class="n" points="40.699 17.941 40.725 18.167 40.77 18.558 39.872 18.558 39.872 18.165 39.979 18.167 39.979 17.58 39.872 17.58 39.872 17.011 41.181 16.218 42.84 16.218 42.854 16.824 42.375 17.287 41.13 17.75 40.923 17.407 40.699 17.407 40.699 17.941"/>
    <polygon class="b" points="40.787 19.378 39.872 19.149 39.372 19.149 39.372 19.053 40.404 19.053 40.787 19.149 40.787 19.378"/>
    <polygon class="b" points="40.787 18.707 38.287 18.707 38.287 18.558 40.77 18.558 40.787 18.707"/>
    <polygon class="b" points="39.979 18.165 38.798 18.165 38.798 17.952 38.447 17.952 38.447 17.824 38.787 17.824 38.787 17.58 39.979 17.58 39.979 18.165"/>
    <polygon class="c" points="39.872 18.707 39.872 19.053 40.404 19.053 40.787 19.149 40.787 18.707 39.872 18.707"/>
    <polygon class="l" points="11.617 4.34 11.617 3.213 13.516 3.213 13.516 4.34 13.363 4.34 13.363 4.739 11.98 4.781 11.617 4.34"/>
    <polygon class="l" points="16.532 19.234 15.532 19.234 14.617 18.957 13.787 18.245 13.532 17.191 13.492 16.793 13.83 16.66 13.83 16.17 16.532 16.17 16.532 19.234"/>
    <polygon class="c" points="16.532 19.723 15.277 19.511 14.245 19.106 13.436 18.362 13.245 17.831 13.641 17.643 13.787 18.245 14.617 18.957 15.532 19.234 16.532 19.234 16.532 19.723"/>
    <polygon class="a" points="84.468 7.128 84.574 6.915 84.713 6.915 84.713 6.383 85.574 6.383 85.574 6.649 85.096 6.649 85.096 6.915 85.574 6.915 85.574 7.532 85.064 7.532 84.468 7.128"/>
    <polygon class="a" points="85.574 7.532 85.702 7.532 85.702 7.149 86.34 7.021 86.34 6.628 86.117 6.404 85.574 6.383 85.574 6.649 85.574 6.915 85.574 7.532"/>
    <polygon class="b" points="86.34 7.021 86.34 6.628 86.593 6.957 86.697 7.061 86.697 7.532 85.702 7.532 85.702 7.149 86.34 7.021"/>
    <polygon class="a" points="86.697 7.202 87.551 7.202 87.551 7.457 88.484 7.457 88.484 7.362 89.426 7.362 89.426 7.61 87.021 7.532 86.697 7.532 86.697 7.202"/>
    <polygon class="a" points="90.79 7.654 90.79 7.354 91.213 7.354 91.213 7.504 93.223 7.504 93.463 6.957 94.245 6.957 94.428 7.577 97.021 7.577 97.021 7.77 91.872 7.69 90.79 7.654"/>
    <polygon class="a" points="84.447 17.16 84.383 17.67 83.138 18.457 82.835 18.232 84.447 17.16"/>
    <polygon class="a" points="82.533 18.433 82.795 18.694 82.128 19.138 82.128 19.681 81.532 19.681 81.532 19.319 81.246 19.289 82.533 18.433"/>
    <polygon class="a" points="79.919 20.171 80.266 20.171 80.617 20.426 81.011 20.171 80.529 19.766 79.919 20.171"/>
    <polygon class="a" points="79.919 20.171 79.919 20.628 79.404 20.883 78.745 21.415 78.05 21.415 79.919 20.171"/>
    <polygon class="a" points="100.373 8.012 100.373 7.809 100.771 7.41 101.053 7.691 100.852 8.035 100.373 8.012"/>
    <polygon class="a" points="103.777 8.177 104.043 7.77 104.309 7.596 104.83 7.596 105.053 7.886 105.766 8.035 106.543 8.035 106.543 7.886 107.043 7.886 107.043 8.289 106.83 8.213 104.511 8.213 103.777 8.177"/>
    <polygon class="a" points="75.532 1.957 75.532 1.277 76.043 1.277 76.148 1.844 75.532 1.957"/>
    <polygon class="n" points="43.457 16.218 43.457 15.447 43.989 15.447 44.125 15.401 44.125 16.218 43.457 16.218"/>
    <polygon class="c" points="43.457 16.218 43.133 16.218 43.133 15.209 43.424 14.918 43.791 14.918 44.125 15.401 43.989 15.447 43.457 15.447 43.457 16.218"/>
    <polygon class="c" points="41.462 16.208 41.048 15.437 40.553 14.872 39.872 14.691 39.174 14.888 38.723 15.309 38.723 15.81 39.117 15.81 39.255 15.401 39.537 15.117 39.872 15.064 40.33 15.209 40.691 15.568 40.83 15.904 41.074 16.283 41.181 16.218 41.462 16.208"/>
    <polygon class="n" points="38.723 15.81 38.723 16.283 38.564 16.468 38.287 16.074 38.287 15.862 38.447 15.401 38.723 15.309 38.723 15.81"/>
    <polygon class="n" points="39.117 15.81 39.766 16.745 40.968 16.117 40.83 15.904 40.691 15.568 40.33 15.209 39.872 15.064 39.537 15.117 39.255 15.401 39.117 15.81"/>
    <polygon class="b" points="41.074 16.283 40.968 16.117 39.766 16.745 39.117 15.81 38.723 15.81 38.723 16.283 38.979 16.521 39.872 17.011 41.074 16.283"/>
    <polygon class="o" points="3.923 15.577 80.591 5.595 80.42 5.13 80.319 5.234 3.843 15.215 3.923 15.577"/>
    <polygon class="o" points="4.105 16.378 80.88 6.395 80.715 5.93 80.5 6.034 4.024 16.015 4.105 16.378"/>
    <polygon class="o" points="12.492 14.462 12.579 14.898 13.83 14.735 13.757 14.297 12.492 14.462"/>
    <polygon class="o" points="22.564 13.15 22.739 13.338 22.739 13.572 23.778 13.437 23.807 12.988 22.564 13.15"/>
    <polygon class="o" points="34.639 12.019 34.445 11.603 35.542 11.46 35.585 11.896 34.639 12.019"/>
    <polygon class="o" points="45.598 10.589 45.469 10.168 46.925 9.978 46.925 10.416 45.598 10.589"/>
    <polygon class="o" points="69.428 7.479 69.359 7.057 70.532 6.905 70.532 7.335 69.428 7.479"/>
    <polygon class="o" points="59.609 8.327 59.65 8.756 60.519 8.642 60.519 8.208 59.609 8.327"/>
    <polygon class="o" points="2.872 10.84 58.34 3.548 61.213 3.548 59.766 3.702 58.426 3.872 2.931 11.106 2.872 10.84"/>
    <polygon class="o" points="3.104 11.885 66.596 3.548 63.532 3.536 3.029 11.547 3.104 11.885"/>
    <polygon class="d" points="39.574 9.617 40.404 9.511 39.872 6.532 39 6.681 39.574 9.617"/>
    <polygon class="o" points="11.742 10.393 11.742 9.958 12.988 9.795 13.049 10.22 11.742 10.393"/>
    <polygon class="o" points="21.848 9.055 21.734 8.655 22.906 8.503 23.057 8.895 21.848 9.055"/>
    <polygon class="o" points="33.695 7.486 33.65 7.102 34.692 6.966 34.812 7.338 33.695 7.486"/>
    <polygon class="o" points="44.734 6.025 44.629 5.671 46.011 5.491 46.011 5.856 44.734 6.025"/>
    <polygon class="o" points="58.851 4.156 58.649 3.844 59.679 3.713 59.735 4.039 58.851 4.156"/>
    <line class="p" x1="25.79338" y1="14.14195" x2="24.56964" y2="7.5389"/>
    <line class="p" x1="30.01096" y1="13.59071" x2="28.78721" y2="6.98767"/>
    <line class="p" x1="34.06996" y1="13.13496" x2="32.84621" y2="6.53191"/>
    <polygon class="o" points="60.255 3.277 67.702 2.362 74.617 2.362 67.362 3.277 65.096 3.277 70.213 2.596 67.842 2.638 62.5 3.277 60.255 3.277"/>
    <polyline class="q" points="18.468 2.34 18.468 6.988 25.404 6.988 25.404 5.25 26.766 3.213 26.766 2.34"/>
    <g>
      <line class="p" x1="21.73438" y1="14.5977" x2="20.51064" y2="7.99465"/>
      <polygon class="r" points="21.151 14.542 22.317 14.376 22.279 14.719 21.385 15.096 21.151 14.542"/>
      <polygon class="r" points="20.02 8.131 21.193 8.033 21.079 7.708 20.124 7.539 20.02 8.131"/>
    </g>
    <g>
      <line class="p" x1="25.77219" y1="14.12058" x2="24.54845" y2="7.51754"/>
      <polygon class="r" points="25.189 14.065 26.355 13.899 26.317 14.242 25.423 14.619 25.189 14.065"/>
      <polygon class="r" points="24.058 7.654 25.231 7.556 25.117 7.23 24.162 7.062 24.058 7.654"/>
    </g>
    <g>
      <line class="p" x1="30.02227" y1="13.56935" x2="28.79853" y2="6.9663"/>
      <polygon class="r" points="29.439 13.514 30.605 13.348 30.567 13.691 29.673 14.068 29.439 13.514"/>
      <polygon class="r" points="28.308 7.103 29.481 7.005 29.367 6.679 28.412 6.511 28.308 7.103"/>
    </g>
    <g>
      <line class="p" x1="34.07249" y1="13.1136" x2="32.84874" y2="6.51055"/>
      <polygon class="r" points="33.489 13.058 34.656 12.892 34.617 13.235 33.723 13.612 33.489 13.058"/>
      <polygon class="r" points="32.358 6.647 33.532 6.549 33.418 6.223 32.462 6.055 32.358 6.647"/>
    </g>
    <polyline class="q" points="27.574 21.663 27.574 17.016 34.511 17.016 34.511 18.753 35.872 20.791 35.872 21.663"/>
    <polyline class="q" points="58.809 21.663 58.809 17.016 51.872 17.016 51.872 18.753 50.511 20.791 50.511 21.663"/>
    <polyline class="q" points="67.115 21.663 67.115 17.016 74.051 17.016 74.051 18.753 75.413 20.791 75.413 21.663"/>
  </g>
</svg>
