<svg xmlns="http://www.w3.org/2000/svg" width="261.24" height="265.86" viewBox="0 0 261.24 265.86"><defs><style>.a{fill:#231f20;}</style></defs><title>gridlabels</title><path class="a" d="M2.36,20.44c.1-.32.23-.61.62-.61s.54.3.62.61l2.31,8.12c.09.29-.24.6-.57.6s-.56-.31-.65-.6l-.44-1.44H1.69l-.45,1.44c-.09.29-.28.6-.65.6s-.66-.31-.58-.6ZM3,22.67H3L2,25.92H3.91Z"/><path class="a" d="M0,46.13H3.37c1.76,0,2.57,1.08,2.57,2.77a2.32,2.32,0,0,1-.79,1.89A2.62,2.62,0,0,1,5.94,53a2.36,2.36,0,0,1-2.57,2.49H0Zm1.2,4.07H3.37c.87,0,1.37-.39,1.37-1.3s-.28-1.57-1.37-1.57H1.21Zm0,4.06H3.37c.87,0,1.37-.38,1.37-1.29s-.28-1.58-1.37-1.58H1.21Z"/><path class="a" d="M3.24,81.76a1.79,1.79,0,0,1-1.8-1.14L.34,78.39a2.67,2.67,0,0,1,0-2.59l1.1-2.22A1.81,1.81,0,0,1,3.3,72.43h2a.56.56,0,0,1,.6.6.57.57,0,0,1-.6.6h-2c-.52,0-.6.05-.83.5l-1,2.09a1.91,1.91,0,0,0-.25.91,1.71,1.71,0,0,0,.25.83l1,2.07c.24.49.36.53.9.53h2a.57.57,0,0,1,.6.6.57.57,0,0,1-.6.6Z"/><path class="a" d="M1.19,99.93H.74c-.39,0-.73-.14-.73-.6s.33-.6.7-.6h2a1.79,1.79,0,0,1,1.81,1.2L5.58,102a2.76,2.76,0,0,1,0,2.71L4.5,106.93a1.82,1.82,0,0,1-1.9,1.13h-2a.6.6,0,1,1,0-1.2h.58Zm1.2,6.93h.23c.5,0,.62-.06.84-.5l1-2.14a1.68,1.68,0,0,0,.23-.78,2,2,0,0,0-.3-1l-1-2c-.25-.51-.36-.5-.91-.5H2.39Z"/><path class="a" d="M5.34,133.16a.6.6,0,0,1,0,1.2H0V125H5.34a.6.6,0,1,1,0,1.2H1.21v2.87H3a.6.6,0,1,1,0,1.19H1.21v2.87Z"/><path class="a" d="M0,151.33H5.34a.6.6,0,1,1,0,1.2H1.21v1.85h3a.6.6,0,0,1,0,1.2H1.21v4.48a.53.53,0,0,1-.6.6.53.53,0,0,1-.6-.6Z"/><path class="a" d="M3.58,183.91a.6.6,0,0,1,0-1.2H5.94v2.37A1.78,1.78,0,0,1,4,187H2a1.85,1.85,0,0,1-1.38-.48A1.73,1.73,0,0,1,0,185v-3a2.41,2.41,0,0,1,.63-1.75l1.41-1.81a1.82,1.82,0,0,1,1.68-.82H5.34a.6.6,0,1,1,0,1.2H3.9c-.66,0-.61,0-1,.49L1.58,181a2.28,2.28,0,0,0-.37,1.56v2.35c0,.66.15.86.83.86H4c.43,0,.79-.09.79-.62v-1.23Z"/><path class="a" d="M1.21,209.2v3.46a.53.53,0,0,1-.6.6.53.53,0,0,1-.6-.6v-8.13a.53.53,0,0,1,.6-.6.53.53,0,0,1,.6.6V208H4.74v-3.47a.53.53,0,0,1,.6-.6.53.53,0,0,1,.6.6v8.13a.53.53,0,0,1-.6.6.53.53,0,0,1-.6-.6V209.2Z"/><path class="a" d="M3.58,238.36H5.34a.6.6,0,1,1,0,1.2H.61a.6.6,0,1,1,0-1.2H2.38v-6.93H.61a.6.6,0,0,1,0-1.2H5.34a.6.6,0,1,1,0,1.2H3.58Z"/><path class="a" d="M5.34,263.82A2,2,0,0,1,5.11,265a1.82,1.82,0,0,1-1.75.89h-.7A1.88,1.88,0,0,1,1,265.17,1.81,1.81,0,0,1,.61,264v-1.74a.53.53,0,0,1,.6-.6.53.53,0,0,1,.6.6v1.56c0,.7.15.89.85.89h.66c.51,0,.82-.07.82-.65v-6.88a.53.53,0,0,1,.6-.6.53.53,0,0,1,.6.6Z"/><path class="a" d="M26.77,0A1.2,1.2,0,0,1,28,1.2V8.13a1.18,1.18,0,0,1-1.2,1.2H23.24A1.18,1.18,0,0,1,22,8.13V1.2A1.2,1.2,0,0,1,23.24,0Zm0,8.13V1.2H23.24V8.13Z"/><path class="a" d="M52.69,8.13V5.71a.6.6,0,0,1,1.2,0v3a.56.56,0,0,1-.6.6H48.56a.56.56,0,0,1-.6-.6.56.56,0,0,1,.6-.6h1.76V1.2H48.56A.56.56,0,0,1,48,.6a.56.56,0,0,1,.6-.6h3V8.13Z"/><path class="a" d="M75.08,8.13h4.13a.56.56,0,0,1,.6.6.56.56,0,0,1-.6.6H73.88V5.42a1.2,1.2,0,0,1,1.36-1.35h3.37V1.2H74.48a.56.56,0,0,1-.6-.6.56.56,0,0,1,.6-.6h4a1.25,1.25,0,0,1,1.35,1.4V3.86a1.26,1.26,0,0,1-.38,1.07,1.24,1.24,0,0,1-1,.34H75.08Z"/><path class="a" d="M100.4,1.2a.56.56,0,0,1-.6-.6.56.56,0,0,1,.6-.6h4.13a1.17,1.17,0,0,1,1.19,1.2V3.5a1.41,1.41,0,0,1-.46,1.17,1.37,1.37,0,0,1,.46,1.16v2.3a1.16,1.16,0,0,1-1.19,1.2H100.4a.56.56,0,0,1-.6-.6.56.56,0,0,1,.6-.6h4.13v-2c0-.67-.27-.87-.6-.87h-2.36a.55.55,0,0,1-.59-.6.54.54,0,0,1,.59-.6h2.36c.33,0,.6-.21.6-.88v-2Z"/><path class="a" d="M129.84,5.09V1.62a.6.6,0,1,1,1.2,0V5.09a.55.55,0,0,1,.6.6.54.54,0,0,1-.6.59V8.73c0,.39-.16.6-.6.6a.52.52,0,0,1-.6-.6V6.28h-3.52V.6a.54.54,0,0,1,.6-.6.55.55,0,0,1,.6.6V5.09Z"/><path class="a" d="M154,4.07h2.21a1.26,1.26,0,0,1,1,.33,1.17,1.17,0,0,1,.37,1V8a1.23,1.23,0,0,1-.29.93,1.16,1.16,0,0,1-1,.41h-2.66a1.76,1.76,0,0,1-.79-.21l-.46-.21c-.32-.14-.68-.25-.68-.67a.6.6,0,0,1,.57-.6.9.9,0,0,1,.39.1l.36.15a2,2,0,0,0,.63.24h2.77V5.27h-3.54V0H157a.56.56,0,0,1,.6.6.56.56,0,0,1-.6.6H154Z"/><path class="a" d="M178.76,5.09h4c.6,0,.72.25.72.8V8.58c0,.56-.24.75-.78.75h-4.36c-.57,0-.78-.2-.78-.75V.6c0-.28.09-.6.51-.6h.72a.6.6,0,0,1,.57.6.58.58,0,0,1-.6.6Zm0,1.19V8.13h3.52V6.28Z"/><path class="a" d="M204.67,1.2a.6.6,0,1,1-1.19,0V.6a.6.6,0,0,1,.59-.6h5.33V3.48c0,.42,0,.47-.32.75L207.4,5.69c-.31.27-.34.29-.34.71V8.73a.6.6,0,1,1-1.2,0V5.84a.64.64,0,0,1,.31-.69l1.66-1.43c.39-.35.37-.34.37-.87V1.2Z"/><path class="a" d="M233.52,0a.57.57,0,0,1,.6.6V4.07a1.23,1.23,0,0,1,.87.33,1.17,1.17,0,0,1,.33.88V8.13a1.12,1.12,0,0,1-1.2,1.2h-3.53a1.12,1.12,0,0,1-1.2-1.2V5.28a1.17,1.17,0,0,1,.33-.88,1.23,1.23,0,0,1,.87-.33V.6a.57.57,0,0,1,.6-.6Zm.6,8.13V5.27h-3.53V8.13Zm-1.2-4.06V1.2h-1.13V4.07Z"/><path class="a" d="M260,4.27h-4.13a.62.62,0,0,1-.6-.6V.6a.62.62,0,0,1,.6-.6h4.73a.62.62,0,0,1,.6.6V8.73a.58.58,0,0,1-.6.6H260a.58.58,0,0,1-.6-.6.57.57,0,0,1,.6-.6Zm0-1.2V1.2h-3.53V3.07Z"/></svg>