<svg xmlns="http://www.w3.org/2000/svg" width="98.87" height="40.34" viewBox="0 0 98.87 40.34"><title>Destroyer</title><path class="a" d="M.5,28.25H80a33.25,33.25,0,0,0,13.66-3.44c5.47-2.84,4.67-3.59,4.67-3.59H.5Z"/><polygon class="a" points="15.17 21.22 26.35 15.49 26.35 12.68 47.28 12.68 47.28 21.22 15.17 21.22"/><polyline class="a" points="47.28 15.3 66.69 15.3 66.69 21.22"/><polyline class="a" points="66.69 19.3 85.57 19.3 88 21.16"/><polygon class="a" points="69.75 19.3 85.57 14.2 85.57 15.85 74.96 19.3 69.75 19.3"/><polygon class="a" points="48.18 15.3 52.85 11.72 56.81 11.72 56.81 15.3 48.18 15.3"/><line class="a" x1="56.89" y1="11.77" x2="56.89"/><line class="a" x1="61.69" y1="9.09" x2="51.44" y2="9.09"/><line class="a" x1="61.69" y1="6.6" x2="51.44" y2="6.6"/><line class="a" x1="59.08" y1="4.74" x2="54.3" y2="4.74"/><polyline class="a" points="56.81 12.68 61.3 12.68 64.63 15.23"/><line class="a" x1="27.85" y1="11.43" x2="35.93" y2="8.94"/><line class="a" x1="31.89" y1="10.19" x2="31.89" y2="12.68"/><line class="a" x1="37.83" y1="11.44" x2="45.91" y2="8.95"/><line class="a" x1="41.87" y1="10.19" x2="41.87" y2="12.68"/><path class="b" d="M2.74,31.71H5.31a2,2,0,0,1,1,.27,1.83,1.83,0,0,1,.7.64l1.29,2.19a2.23,2.23,0,0,1,0,2.46L7,39.43a1.75,1.75,0,0,1-.71.66,2.13,2.13,0,0,1-1,.25H2.72a.68.68,0,0,1-.46-.16.52.52,0,0,1-.19-.38.54.54,0,0,1,.19-.4.68.68,0,0,1,.46-.16h.69V32.81H2.74a.64.64,0,0,1-.46-.17.49.49,0,0,1-.19-.39.47.47,0,0,1,.19-.38A.68.68,0,0,1,2.74,31.71Zm2,1.1v6.44h.45a.7.7,0,0,0,.65-.36L7.1,36.75A1.52,1.52,0,0,0,7.34,36a1.3,1.3,0,0,0-.19-.68L5.82,33.14a.76.76,0,0,0-.69-.33Z"/><path class="b" d="M17.59,32.81H13v2.66h2a.67.67,0,0,1,.45.16.5.5,0,0,1,.2.38.53.53,0,0,1-.19.4.68.68,0,0,1-.46.16H13v2.68h4.62a.68.68,0,0,1,.46.16.49.49,0,0,1,.19.39.44.44,0,0,1-.2.38.69.69,0,0,1-.47.16h-5.9V31.71h5.9a.69.69,0,0,1,.47.16.48.48,0,0,1,0,.78A.69.69,0,0,1,17.59,32.81Z"/><path class="b" d="M22.74,31.71h3.39a1.87,1.87,0,0,1,1.18.43,1.33,1.33,0,0,1,.55,1.07.47.47,0,0,1-.2.39.73.73,0,0,1-.89,0,1.42,1.42,0,0,1-.24-.47.47.47,0,0,0-.5-.35H22.81c-.15,0-.23,0-.23.13s0,.11.09.18l4.84,5.18a1.14,1.14,0,0,1,.35.8,1.1,1.1,0,0,1-.42.86,1.38,1.38,0,0,1-.94.37H23a1.8,1.8,0,0,1-1.21-.44,1.29,1.29,0,0,1-.52-1c0-.41.23-.61.68-.61a.64.64,0,0,1,.45.16.46.46,0,0,1,.19.37.33.33,0,0,0,.14.29.56.56,0,0,0,.36.12h3.24c.14,0,.21,0,.21-.14a.28.28,0,0,0-.1-.17L21.6,33.77a1.17,1.17,0,0,1-.34-.81,1.15,1.15,0,0,1,.43-.88A1.55,1.55,0,0,1,22.74,31.71Z"/><path class="b" d="M30.85,33.19V31.72h6.57v1.49a.47.47,0,0,1-.2.38.67.67,0,0,1-.45.16.71.71,0,0,1-.47-.16.5.5,0,0,1-.2-.38v-.4H34.78v7a.46.46,0,0,1-.19.38.68.68,0,0,1-.46.16.71.71,0,0,1-.47-.16.46.46,0,0,1-.19-.38v-7H32.15v.38a.51.51,0,0,1-.19.39.68.68,0,0,1-.46.16.66.66,0,0,1-.46-.16A.48.48,0,0,1,30.85,33.19Z"/><path class="b" d="M40.46,39.8V31.71h4.61a2.06,2.06,0,0,1,1.37.48A1.49,1.49,0,0,1,47,33.36V34a1.49,1.49,0,0,1-.57,1.17,2.11,2.11,0,0,1-1.38.48h-.83l2.66,3.84a.56.56,0,0,1,.12.33.47.47,0,0,1-.2.38.72.72,0,0,1-.46.16.65.65,0,0,1-.59-.29l-3.05-4.42h-.94V39.8a.47.47,0,0,1-.2.38.71.71,0,0,1-.47.16.68.68,0,0,1-.46-.16A.49.49,0,0,1,40.46,39.8Zm1.3-5.26h3.31a.68.68,0,0,0,.46-.16.52.52,0,0,0,.19-.39v-.63a.51.51,0,0,0-.19-.39.68.68,0,0,0-.46-.16H41.76Z"/><path class="b" d="M54.85,32.51,56.29,35a2.11,2.11,0,0,1,0,2.17l-1.44,2.42a1.62,1.62,0,0,1-1.55.8,1.93,1.93,0,0,1-.93-.22,1.66,1.66,0,0,1-.62-.58L50.3,37.12A2.07,2.07,0,0,1,50,36,2.13,2.13,0,0,1,50.3,35l1.45-2.44a1.66,1.66,0,0,1,1.55-.8A1.63,1.63,0,0,1,54.85,32.51Zm-2,.54-1.35,2.3a1.49,1.49,0,0,0-.19.68,1.4,1.4,0,0,0,.19.68L52.91,39a.4.4,0,0,0,.39.21.41.41,0,0,0,.38-.21l1.4-2.33a1.38,1.38,0,0,0,.19-.68,1.27,1.27,0,0,0-.19-.68l-1.37-2.3a.42.42,0,0,0-.41-.25A.48.48,0,0,0,52.87,33.05Z"/><path class="b" d="M63.57,36.2v3.6a.46.46,0,0,1-.19.38.68.68,0,0,1-.46.16.69.69,0,0,1-.47-.16.47.47,0,0,1-.2-.38V36.2l-2.62-2.78V32.26a.5.5,0,0,1,.2-.39.66.66,0,0,1,.46-.16.68.68,0,0,1,.46.16.49.49,0,0,1,.2.4V33l2,2.1,2-2.1v-.76a.49.49,0,0,1,.19-.39.68.68,0,0,1,.46-.16.72.72,0,0,1,.45.15.49.49,0,0,1,.2.4v1.15Z"/><path class="b" d="M75.11,32.81h-4.6v2.66h2a.68.68,0,0,1,.46.16.49.49,0,0,1,.19.38.5.5,0,0,1-.19.4.66.66,0,0,1-.46.16h-2v2.68h4.61a.68.68,0,0,1,.46.16.5.5,0,0,1,.2.39.47.47,0,0,1-.2.38.71.71,0,0,1-.47.16h-5.9V31.71h5.9a.71.71,0,0,1,.47.16.48.48,0,0,1,0,.78A.71.71,0,0,1,75.11,32.81Z"/><path class="b" d="M78.81,39.8V31.71h4.6a2.11,2.11,0,0,1,1.38.48,1.5,1.5,0,0,1,.57,1.17V34a1.49,1.49,0,0,1-.57,1.17,2.07,2.07,0,0,1-1.38.48h-.83l2.66,3.84a.56.56,0,0,1,.12.33.47.47,0,0,1-.2.38.7.7,0,0,1-.46.16.66.66,0,0,1-.59-.29l-3-4.42h-.94V39.8a.46.46,0,0,1-.19.38.72.72,0,0,1-.47.16.66.66,0,0,1-.46-.16A.46.46,0,0,1,78.81,39.8Zm1.3-5.26h3.3a.68.68,0,0,0,.46-.16.49.49,0,0,0,.19-.39v-.63a.48.48,0,0,0-.19-.39.68.68,0,0,0-.46-.16h-3.3Z"/></svg>