<svg xmlns="http://www.w3.org/2000/svg" width="32.42" height="21.04" viewBox="0 0 32.42 21.04"><title>Patrol Boat</title><path class="a" d="M2,9.17.5,8V6.62H6.66V4.56H10V3.74h4.39A11.53,11.53,0,0,1,19.86,5c3.25,2.06,10.75,1.4,10.75,1.4L26.7,9.17Z"/><line class="a" x1="8.63" y1="4.86" x2="8.63"/><line class="a" x1="8.88" y1="2.98" x2="3.51" y2="2.98"/><line class="a" x1="12.29" y1="1.88" x2="4.66" y2="1.88"/><path class="b" d="M6.26,20.5V12.41h4.62a2.06,2.06,0,0,1,1.38.49,1.48,1.48,0,0,1,.58,1.16v2a1.46,1.46,0,0,1-.58,1.15,2.07,2.07,0,0,1-1.38.48H7.58V20.5a.49.49,0,0,1-.19.39.71.71,0,0,1-.46.15.73.73,0,0,1-.47-.15A.5.5,0,0,1,6.26,20.5Zm1.32-3.85h3.3a.68.68,0,0,0,.46-.16.46.46,0,0,0,.19-.38v-2a.49.49,0,0,0-.19-.39.73.73,0,0,0-.46-.16H7.58Z"/><path class="b" d="M22.41,18.37v.48a2,2,0,0,1-.77,1.55A2.75,2.75,0,0,1,19.8,21h-4V12.41h4a2.75,2.75,0,0,1,1.84.64,2,2,0,0,1,.77,1.55v.47a2,2,0,0,1-.9,1.65A2,2,0,0,1,22.41,18.37Zm-1.34-3.32V14.6a1,1,0,0,0-.38-.78,1.41,1.41,0,0,0-.92-.32H17.12v2.64h2.65a1.33,1.33,0,0,0,.91-.32A1,1,0,0,0,21.07,15.05Zm0,3.8v-.46a1,1,0,0,0-.38-.78,1.41,1.41,0,0,0-.92-.32H17.14v2.65h2.63a1.38,1.38,0,0,0,.91-.32A1,1,0,0,0,21.07,18.85Z"/></svg>