<svg xmlns="http://www.w3.org/2000/svg" width="162.75" height="35.51" viewBox="0 0 162.75 35.51"><title>Aircraft Carrier</title><polygon class="a" points="14 22.24 5.59 13.83 156.75 13.83 148.17 22.41 14 22.24"/><line class="a" x1="5.59" y1="13.83" y2="13.83"/><line class="a" x1="156.75" y1="13.83" x2="162.75" y2="13.83"/><polygon class="a" points="82.39 13.83 82.39 10.34 84.3 10.34 84.3 7.73 82.39 7.73 82.39 5.28 55.55 5.28 55.55 7.08 54.28 7.91 54.28 13.83 82.39 13.83"/><line class="a" x1="111.01" y1="13.83" x2="113.76" y2="9.99"/><line class="a" x1="46.54" y1="13.83" x2="48.3" y2="11.91"/><path class="a" d="M116.91,11.91l-1.45-3h1.45l2.27,1.5,7.43-.72c1.86-1.86,4.36,0,4.36,0l5.66,1-4.69,1.24Z"/><line class="a" x1="65.58" y1="5.83" x2="65.58"/><line class="a" x1="75" y1="2.92" x2="59.19" y2="2.92"/><polygon class="a" points="92.25 13.83 94.08 11.91 102.47 11.91 104.07 13.51 92.25 13.83"/><path class="a" d="M11.17,11.91l-.93-3h.93l1.45,1.5,4.76-.72c1.19-1.86,2.8,0,2.8,0l3.62,1-3,1.24Z"/><path class="a" d="M27.69,11.91l-.93-3h.93l1.45,1.5L33.9,9.7c1.19-1.86,2.8,0,2.8,0l3.62,1-3,1.24Z"/><path class="b" d="M1.64,34.75l2.62-7.47a.65.65,0,0,1,.66-.41.56.56,0,0,1,.61.35l2.6,7.58a.5.5,0,0,1,0,.16.47.47,0,0,1-.19.39.6.6,0,0,1-.42.16.6.6,0,0,1-.65-.4l-.52-1.48h-3l-.57,1.59c0,.07-.08.13-.19.2a.78.78,0,0,1-.37.09.7.7,0,0,1-.48-.16A.53.53,0,0,1,1.6,35,.79.79,0,0,1,1.64,34.75ZM4.91,29.4,3.8,32.53H6Z"/><path class="b" d="M11.83,26.87h5.26a.69.69,0,0,1,.46.17.47.47,0,0,1,.2.38.5.5,0,0,1-.2.39.69.69,0,0,1-.46.17h-2v6.44h2a.69.69,0,0,1,.47.16.49.49,0,0,1,.19.38.47.47,0,0,1-.2.39.68.68,0,0,1-.46.16H11.83a.69.69,0,0,1-.47-.16.49.49,0,0,1,0-.77.69.69,0,0,1,.47-.16h2V28h-2a.74.74,0,0,1-.47-.16.52.52,0,0,1-.19-.39.51.51,0,0,1,.19-.39A.7.7,0,0,1,11.83,26.87Z"/><path class="b" d="M20.79,35V26.87h4.6a2.1,2.1,0,0,1,1.38.49,1.5,1.5,0,0,1,.58,1.16v.63a1.49,1.49,0,0,1-.58,1.17,2.07,2.07,0,0,1-1.38.48h-.83l2.66,3.83a.56.56,0,0,1,.13.34.46.46,0,0,1-.21.38.73.73,0,0,1-1-.13L23.05,30.8h-.94V35a.47.47,0,0,1-.2.39.71.71,0,0,1-.47.16.68.68,0,0,1-.46-.16A.47.47,0,0,1,20.79,35Zm1.3-5.25h3.3a.71.71,0,0,0,.46-.16.49.49,0,0,0,.19-.39v-.64a.46.46,0,0,0-.19-.38.66.66,0,0,0-.46-.16h-3.3Z"/><path class="b" d="M33.93,34.42h2.35a.71.71,0,0,1,.47.16.47.47,0,0,1,0,.77.71.71,0,0,1-.47.16H33.85a2.08,2.08,0,0,1-1-.25,1.6,1.6,0,0,1-.69-.55l-1.51-2.44a2.14,2.14,0,0,1-.3-1.07,1.93,1.93,0,0,1,.29-1.06l1.52-2.41a1.8,1.8,0,0,1,.67-.6,1.84,1.84,0,0,1,.89-.26h2.57a.69.69,0,0,1,.46.17.46.46,0,0,1,.19.38.49.49,0,0,1-.19.39.69.69,0,0,1-.46.17H33.85a.57.57,0,0,0-.5.3L31.9,30.55a1.14,1.14,0,0,0-.17.63,1.17,1.17,0,0,0,.19.67l1.38,2.23A.67.67,0,0,0,33.93,34.42Z"/><path class="b" d="M40,35V26.87h4.61a2.07,2.07,0,0,1,1.37.49,1.47,1.47,0,0,1,.58,1.16v.63A1.5,1.5,0,0,1,46,30.32a2.11,2.11,0,0,1-1.38.48h-.83l2.66,3.83a.61.61,0,0,1,.12.34.47.47,0,0,1-.2.38.72.72,0,0,1-.46.16.67.67,0,0,1-.59-.29L42.22,30.8h-.94V35a.47.47,0,0,1-.2.39.71.71,0,0,1-.47.16.68.68,0,0,1-.46-.16A.49.49,0,0,1,40,35Zm1.3-5.25h3.31a.73.73,0,0,0,.46-.16.52.52,0,0,0,.19-.39v-.64a.49.49,0,0,0-.19-.38.68.68,0,0,0-.46-.16H41.26Z"/><path class="b" d="M49.57,34.75l2.62-7.47a.65.65,0,0,1,.66-.41.56.56,0,0,1,.61.35l2.6,7.58a.5.5,0,0,1,0,.16.47.47,0,0,1-.19.39.6.6,0,0,1-.42.16.6.6,0,0,1-.65-.4l-.52-1.48h-3l-.57,1.59c0,.07-.08.13-.19.2a.78.78,0,0,1-.37.09.68.68,0,0,1-.48-.16.53.53,0,0,1-.19-.4A.79.79,0,0,1,49.57,34.75Zm3.27-5.35-1.11,3.13h2.2Z"/><path class="b" d="M59.12,35V26.87H65a.71.71,0,0,1,.46.17.47.47,0,0,1,.2.38.5.5,0,0,1-.2.39A.69.69,0,0,1,65,28h-4.6v1.71h3.3a.71.71,0,0,1,.46.16.5.5,0,0,1,0,.78.71.71,0,0,1-.46.16h-3.3V35a.47.47,0,0,1-.19.39.74.74,0,0,1-.92,0A.47.47,0,0,1,59.12,35Z"/><path class="b" d="M68.69,28.36V26.89h6.57v1.49a.46.46,0,0,1-.19.38.68.68,0,0,1-.46.16.71.71,0,0,1-.47-.16.5.5,0,0,1-.2-.38V28H72.63v7a.47.47,0,0,1-.2.39.67.67,0,0,1-.45.16.71.71,0,0,1-.48-.16.47.47,0,0,1-.19-.39V28H70v.38a.49.49,0,0,1-.19.39.74.74,0,0,1-.92,0A.49.49,0,0,1,68.69,28.36Z"/><path class="b" d="M91.45,34.42H93.8a.72.72,0,0,1,.47.16.46.46,0,0,1,.19.38.47.47,0,0,1-.19.39.72.72,0,0,1-.47.16H91.36a2.08,2.08,0,0,1-1-.25,1.6,1.6,0,0,1-.69-.55l-1.5-2.44a2.14,2.14,0,0,1-.3-1.07,1.93,1.93,0,0,1,.28-1.06l1.52-2.41a1.84,1.84,0,0,1,.68-.6,1.81,1.81,0,0,1,.88-.26h2.57a.67.67,0,0,1,.46.17.46.46,0,0,1,.19.38.49.49,0,0,1-.19.39.67.67,0,0,1-.46.17H91.37a.59.59,0,0,0-.51.3l-1.44,2.27a1.06,1.06,0,0,0-.17.63,1.24,1.24,0,0,0,.18.67l1.38,2.23A.67.67,0,0,0,91.45,34.42Z"/><path class="b" d="M97.5,34.75l2.62-7.47a.65.65,0,0,1,.66-.41.57.57,0,0,1,.61.35L104,34.8a.5.5,0,0,1,0,.16.47.47,0,0,1-.19.39.69.69,0,0,1-1.07-.24l-.52-1.48h-3l-.57,1.59c0,.07-.08.13-.19.2a.82.82,0,0,1-.38.09.67.67,0,0,1-.47-.16.5.5,0,0,1-.19-.4A.51.51,0,0,1,97.5,34.75Zm3.27-5.35-1.12,3.13h2.21Z"/><path class="b" d="M107.06,35V26.87h4.61a2.07,2.07,0,0,1,1.37.49,1.47,1.47,0,0,1,.58,1.16v.63a1.5,1.5,0,0,1-.57,1.17,2.11,2.11,0,0,1-1.38.48h-.83l2.66,3.83a.61.61,0,0,1,.12.34.47.47,0,0,1-.2.38.72.72,0,0,1-.46.16.67.67,0,0,1-.59-.29l-3.05-4.42h-.94V35a.47.47,0,0,1-.2.39.69.69,0,0,1-.47.16.68.68,0,0,1-.46-.16A.49.49,0,0,1,107.06,35Zm1.31-5.25h3.3a.73.73,0,0,0,.46-.16.52.52,0,0,0,.19-.39v-.64a.49.49,0,0,0-.19-.38.68.68,0,0,0-.46-.16h-3.3Z"/><path class="b" d="M116.65,35V26.87h4.6a2.12,2.12,0,0,1,1.38.49,1.5,1.5,0,0,1,.58,1.16v.63a1.52,1.52,0,0,1-.58,1.17,2.07,2.07,0,0,1-1.38.48h-.83l2.66,3.83a.63.63,0,0,1,.13.34.46.46,0,0,1-.21.38.68.68,0,0,1-.46.16.67.67,0,0,1-.58-.29l-3-4.42H118V35a.47.47,0,0,1-.2.39.71.71,0,0,1-.47.16.68.68,0,0,1-.46-.16A.47.47,0,0,1,116.65,35Zm1.3-5.25h3.3a.71.71,0,0,0,.46-.16.49.49,0,0,0,.19-.39v-.64a.46.46,0,0,0-.19-.38.66.66,0,0,0-.46-.16H118Z"/><path class="b" d="M126.86,26.87h5.26a.69.69,0,0,1,.46.17.47.47,0,0,1,.2.38.5.5,0,0,1-.2.39.69.69,0,0,1-.46.17h-2v6.44h2a.69.69,0,0,1,.47.16.49.49,0,0,1,.19.38.47.47,0,0,1-.2.39.68.68,0,0,1-.46.16h-5.26a.69.69,0,0,1-.47-.16.49.49,0,0,1,0-.77.69.69,0,0,1,.47-.16h2V28h-2a.74.74,0,0,1-.47-.16.52.52,0,0,1-.19-.39.51.51,0,0,1,.19-.39A.7.7,0,0,1,126.86,26.87Z"/><path class="b" d="M141.71,28h-4.6v2.66h2a.68.68,0,0,1,.46.16.49.49,0,0,1,.19.38.5.5,0,0,1-.19.4.66.66,0,0,1-.46.16h-2v2.68h4.62a.67.67,0,0,1,.45.16.47.47,0,0,1,0,.77.71.71,0,0,1-.47.16h-5.9V26.87h5.9a.71.71,0,0,1,.47.17.48.48,0,0,1,0,.78A.76.76,0,0,1,141.71,28Z"/><path class="b" d="M145.41,35V26.87H150a2.12,2.12,0,0,1,1.38.49,1.49,1.49,0,0,1,.57,1.16v.63a1.5,1.5,0,0,1-.57,1.17,2.07,2.07,0,0,1-1.38.48h-.83l2.66,3.83A.61.61,0,0,1,152,35a.44.44,0,0,1-.2.38.7.7,0,0,1-.46.16.69.69,0,0,1-.59-.29l-3.05-4.42h-.94V35a.47.47,0,0,1-.19.39.71.71,0,0,1-.47.16.66.66,0,0,1-.46-.16A.47.47,0,0,1,145.41,35Zm1.3-5.25H150a.73.73,0,0,0,.46-.16.49.49,0,0,0,.19-.39v-.64a.46.46,0,0,0-.19-.38A.68.68,0,0,0,150,28h-3.3Z"/></svg>