<svg xmlns="http://www.w3.org/2000/svg" width="135.17" height="35.2" viewBox="0 0 135.17 35.2"><defs><style>.a{fill:none;stroke:#231f20;stroke-miterlimit:10;}</style></defs><title>icon_battleship4</title><path class="a" d="M.5,34.7h109a46.59,46.59,0,0,0,18.72-4.59c7.51-3.78,6.41-4.78,6.41-4.78H.5Z"/><polygon class="a" points="97.39 25.05 126.64 18.4 126.64 20.56 111.57 25.05 97.39 25.05"/><polygon class="a" points="96.22 25.05 92.86 21.69 66.69 21.69 21.54 21.69 17.97 25.26 96.22 25.05"/><polygon class="a" points="78.6 21.41 94.42 14.76 94.42 16.92 83.81 21.41 78.6 21.41"/><rect class="a" x="50.67" y="16.58" width="23.13" height="5.11"/><polygon class="a" points="32.55 21.41 19.24 14.76 19.24 16.92 28.17 21.41 32.55 21.41"/><polygon class="a" points="55.74 16.58 59.12 8.66 60.74 8.66 63.72 8.66 65.34 8.66 68.72 16.58 55.74 16.58"/><line class="a" x1="33.38" y1="19.95" x2="41.46" y2="16.7"/><line class="a" x1="37.42" y1="18.32" x2="37.42" y2="21.57"/><line class="a" x1="40" y1="19.95" x2="48.08" y2="16.7"/><line class="a" x1="44.04" y1="18.33" x2="44.04" y2="21.58"/><line class="a" x1="62.01" y1="16.58" x2="62.01"/><line class="a" x1="66.81" y1="6.49" x2="56.56" y2="6.49"/><line class="a" x1="64.21" y1="4.66" x2="59.42" y2="4.66"/></svg>