<svg xmlns="http://www.w3.org/2000/svg" width="78.79" height="34.73" viewBox="0 0 78.79 34.73"></defs><title>Cruiser</title><path class="a" d="M24.64,22.4H65.39l3-1.41a31.44,31.44,0,0,0,9.22-6.63H58.15L54.42,9.29H39.49L35.7,13.43,35,17.32.5,17.74V22.4Z"/><line class="a" x1="45.32" y1="9.29" x2="45.32"/><line class="a" x1="50.48" y1="5.97" x2="40.76" y2="5.97"/><line class="a" x1="50.48" y1="3.64" x2="40.76" y2="3.64"/><polygon class="a" points="7.99 15.85 5.39 13.62 6.69 13.38 7.96 14.61 11.8 13.38 17.6 13.38 18.82 14.61 17.95 15.56 7.99 15.85"/><polyline class="a" points="14.4 13.38 14.4 12.47 8.71 12.47 19.26 12.47"/><path class="b" d="M8.61,33.64H11a.75.75,0,0,1,.47.15.48.48,0,0,1,0,.78.76.76,0,0,1-.47.16H8.53a2.08,2.08,0,0,1-1-.25,1.67,1.67,0,0,1-.69-.55l-1.5-2.44a2.16,2.16,0,0,1-.31-1.08,1.93,1.93,0,0,1,.29-1.06l1.52-2.41a1.87,1.87,0,0,1,.67-.59,1.84,1.84,0,0,1,.89-.26H11a.73.73,0,0,1,.46.16.5.5,0,0,1,0,.78.69.69,0,0,1-.46.17H8.53a.58.58,0,0,0-.5.3L6.58,29.76a1.19,1.19,0,0,0-.17.63,1.29,1.29,0,0,0,.19.68L8,33.29A.67.67,0,0,0,8.61,33.64Z"/><path class="b" d="M14.64,34.18V26.09h4.61a2,2,0,0,1,1.37.49,1.45,1.45,0,0,1,.58,1.16v.63a1.47,1.47,0,0,1-.57,1.16,2.12,2.12,0,0,1-1.38.49h-.83l2.66,3.83a.59.59,0,0,1,.12.34.48.48,0,0,1-.2.38.78.78,0,0,1-.46.16.67.67,0,0,1-.59-.29L16.9,30H16v4.16a.47.47,0,0,1-.2.39.73.73,0,0,1-.46.16.76.76,0,0,1-.47-.16A.52.52,0,0,1,14.64,34.18ZM16,28.92h3.3a.68.68,0,0,0,.46-.16.46.46,0,0,0,.19-.38v-.64a.49.49,0,0,0-.19-.39.73.73,0,0,0-.46-.15H16Z"/><path class="b" d="M24.2,33.09V26.65a.49.49,0,0,1,.19-.39.69.69,0,0,1,.46-.17.73.73,0,0,1,.46.16.49.49,0,0,1,.19.39v6.45a.48.48,0,0,0,.19.37.7.7,0,0,0,.46.16h2.67a.73.73,0,0,0,.46-.15.47.47,0,0,0,.19-.38V26.65a.5.5,0,0,1,.19-.4.71.71,0,0,1,.46-.16.73.73,0,0,1,.46.16.5.5,0,0,1,.19.4v6.43a1.45,1.45,0,0,1-.58,1.16,2.07,2.07,0,0,1-1.37.49H26.15a2.09,2.09,0,0,1-1.38-.48A1.47,1.47,0,0,1,24.2,33.09Z"/><path class="b" d="M34.44,26.09h5.27a.73.73,0,0,1,.45.16.48.48,0,0,1,0,.78.68.68,0,0,1-.45.17h-2v6.44h2a.73.73,0,0,1,.46.15.52.52,0,0,1,.19.39.5.5,0,0,1-.2.39.73.73,0,0,1-.45.16H34.44a.76.76,0,0,1-.47-.16.5.5,0,0,1,0-.78.75.75,0,0,1,.47-.15h2V27.2h-2A.71.71,0,0,1,34,27a.5.5,0,0,1-.19-.38.53.53,0,0,1,.19-.4A.76.76,0,0,1,34.44,26.09Z"/><path class="b" d="M44.85,26.09h3.39a1.88,1.88,0,0,1,1.18.44A1.31,1.31,0,0,1,50,27.59a.5.5,0,0,1-.19.4.68.68,0,0,1-.44.16.62.62,0,0,1-.46-.13,1.33,1.33,0,0,1-.24-.47.47.47,0,0,0-.5-.34H44.92c-.15,0-.23,0-.23.12s0,.12.09.19l4.84,5.17a1.1,1.1,0,0,1-.07,1.67,1.41,1.41,0,0,1-.94.37H45.1a1.76,1.76,0,0,1-1.21-.45,1.26,1.26,0,0,1-.52-1c0-.4.23-.61.68-.61a.69.69,0,0,1,.45.16.47.47,0,0,1,.19.38.38.38,0,0,0,.14.29.56.56,0,0,0,.36.12h3.24c.14,0,.21,0,.21-.14a.28.28,0,0,0-.09-.17l-4.84-5.18a1.2,1.2,0,0,1-.34-.81,1.15,1.15,0,0,1,.44-.88A1.56,1.56,0,0,1,44.85,26.09Z"/><path class="b" d="M58.88,27.2H54.27v2.65h2a.71.71,0,0,1,.46.17.49.49,0,0,1,.19.38.5.5,0,0,1-.19.4.73.73,0,0,1-.46.16h-2v2.68h4.62a.73.73,0,0,1,.46.15.5.5,0,0,1,0,.78.78.78,0,0,1-.47.16H53V26.09h5.91a.73.73,0,0,1,.47.17.49.49,0,0,1,.19.39.47.47,0,0,1-.19.38A.73.73,0,0,1,58.88,27.2Z"/><path class="b" d="M62.57,34.18V26.09h4.61a2,2,0,0,1,1.37.49,1.45,1.45,0,0,1,.58,1.16v.63a1.47,1.47,0,0,1-.57,1.16,2.12,2.12,0,0,1-1.38.49h-.83L69,33.85a.59.59,0,0,1,.12.34.48.48,0,0,1-.2.38.78.78,0,0,1-.46.16.67.67,0,0,1-.59-.29l-3-4.42h-.94v4.16a.47.47,0,0,1-.2.39.74.74,0,0,1-.47.16.73.73,0,0,1-.46-.16A.52.52,0,0,1,62.57,34.18Zm1.31-5.26h3.3a.68.68,0,0,0,.46-.16.49.49,0,0,0,.19-.38v-.64a.52.52,0,0,0-.19-.39.73.73,0,0,0-.46-.15h-3.3Z"/><polyline class="a" points="35.7 13.44 22.41 13.44 22.41 17.47"/><polyline class="a" points="30.3 13.38 30.3 10.17 35.7 10.17 35.7 13.44"/><line class="a" x1="30.3" y1="11.8" x2="24.23" y2="9.8"/><polyline class="a" points="62.08 14.36 63.92 12.13 68.42 12.13 70.97 14.36"/><line class="a" x1="69.32" y1="12.92" x2="75.75" y2="11.8"/></svg>