<svg xmlns="http://www.w3.org/2000/svg" width="271.57" height="274.71" viewBox="0 0 271.57 274.71"><defs><style>.a{fill:#3b9bd6;}.b{fill:#231f20;}</style></defs><title>labels</title><rect class="a" width="23.23" height="23.23"/><rect class="a" x="26.23" width="23.23" height="23.23"/><rect class="a" x="52.47" width="23.23" height="23.23"/><rect class="a" x="78.7" width="23.23" height="23.23"/><rect class="a" x="104.94" width="23.23" height="23.23"/><rect class="a" x="131.17" width="23.23" height="23.23"/><rect class="a" x="157.41" width="23.23" height="23.23"/><rect class="a" x="183.64" width="23.23" height="23.23"/><rect class="a" x="209.87" width="23.23" height="23.23"/><rect class="a" x="236.11" width="23.23" height="23.23"/><rect class="a" y="26.23" width="23.23" height="23.23"/><rect class="a" x="26.23" y="26.23" width="23.23" height="23.23"/><rect class="a" x="52.47" y="26.23" width="23.23" height="23.23"/><rect class="a" x="78.7" y="26.23" width="23.23" height="23.23"/><rect class="a" x="104.94" y="26.23" width="23.23" height="23.23"/><rect class="a" x="131.17" y="26.23" width="23.23" height="23.23"/><rect class="a" x="157.4" y="26.23" width="23.23" height="23.23"/><rect class="a" x="183.64" y="26.23" width="23.23" height="23.23"/><rect class="a" x="209.87" y="26.23" width="23.23" height="23.23"/><rect class="a" x="236.11" y="26.23" width="23.23" height="23.23"/><rect class="a" y="52.47" width="23.23" height="23.23"/><rect class="a" x="26.23" y="52.47" width="23.23" height="23.23"/><rect class="a" x="52.47" y="52.47" width="23.23" height="23.23"/><rect class="a" x="78.7" y="52.47" width="23.23" height="23.23"/><rect class="a" x="104.94" y="52.47" width="23.23" height="23.23"/><rect class="a" x="131.17" y="52.47" width="23.23" height="23.23"/><rect class="a" x="157.4" y="52.47" width="23.23" height="23.23"/><rect class="a" x="183.64" y="52.47" width="23.23" height="23.23"/><rect class="a" x="209.87" y="52.47" width="23.23" height="23.23"/><rect class="a" x="236.11" y="52.47" width="23.23" height="23.23"/><rect class="a" y="78.7" width="23.23" height="23.23"/><rect class="a" x="26.23" y="78.7" width="23.23" height="23.23"/><rect class="a" x="52.47" y="78.7" width="23.23" height="23.23"/><rect class="a" x="78.7" y="78.7" width="23.23" height="23.23"/><rect class="a" x="104.94" y="78.7" width="23.23" height="23.23"/><rect class="a" x="131.17" y="78.7" width="23.23" height="23.23"/><rect class="a" x="157.4" y="78.7" width="23.23" height="23.23"/><rect class="a" x="183.64" y="78.7" width="23.23" height="23.23"/><rect class="a" x="209.87" y="78.7" width="23.23" height="23.23"/><rect class="a" x="236.11" y="78.7" width="23.23" height="23.23"/><rect class="a" y="104.94" width="23.23" height="23.23"/><rect class="a" x="26.23" y="104.94" width="23.23" height="23.23"/><rect class="a" x="52.47" y="104.94" width="23.23" height="23.23"/><rect class="a" x="78.7" y="104.94" width="23.23" height="23.23"/><rect class="a" x="104.94" y="104.94" width="23.23" height="23.23"/><rect class="a" x="131.17" y="104.94" width="23.23" height="23.23"/><rect class="a" x="157.4" y="104.94" width="23.23" height="23.23"/><rect class="a" x="183.64" y="104.94" width="23.23" height="23.23"/><rect class="a" x="209.87" y="104.94" width="23.23" height="23.23"/><rect class="a" x="236.11" y="104.94" width="23.23" height="23.23"/><rect class="a" y="131.17" width="23.23" height="23.23"/><rect class="a" x="26.23" y="131.17" width="23.23" height="23.23"/><rect class="a" x="52.47" y="131.17" width="23.23" height="23.23"/><rect class="a" x="78.7" y="131.17" width="23.23" height="23.23"/><rect class="a" x="104.94" y="131.17" width="23.23" height="23.23"/><rect class="a" x="131.17" y="131.17" width="23.23" height="23.23"/><rect class="a" x="157.4" y="131.17" width="23.23" height="23.23"/><rect class="a" x="183.64" y="131.17" width="23.23" height="23.23"/><rect class="a" x="209.87" y="131.17" width="23.23" height="23.23"/><rect class="a" x="236.11" y="131.17" width="23.23" height="23.23"/><rect class="a" y="157.4" width="23.23" height="23.23"/><rect class="a" x="26.23" y="157.4" width="23.23" height="23.23"/><rect class="a" x="52.47" y="157.4" width="23.23" height="23.23"/><rect class="a" x="78.7" y="157.4" width="23.23" height="23.23"/><rect class="a" x="104.94" y="157.4" width="23.23" height="23.23"/><rect class="a" x="131.17" y="157.4" width="23.23" height="23.23"/><rect class="a" x="157.4" y="157.4" width="23.23" height="23.23"/><rect class="a" x="183.64" y="157.4" width="23.23" height="23.23"/><rect class="a" x="209.87" y="157.4" width="23.23" height="23.23"/><rect class="a" x="236.11" y="157.4" width="23.23" height="23.23"/><rect class="a" y="183.64" width="23.23" height="23.23"/><rect class="a" x="26.23" y="183.64" width="23.23" height="23.23"/><rect class="a" x="52.47" y="183.64" width="23.23" height="23.23"/><rect class="a" x="78.7" y="183.64" width="23.23" height="23.23"/><rect class="a" x="104.94" y="183.64" width="23.23" height="23.23"/><rect class="a" x="131.17" y="183.64" width="23.23" height="23.23"/><rect class="a" x="157.4" y="183.64" width="23.23" height="23.23"/><rect class="a" x="183.64" y="183.64" width="23.23" height="23.23"/><rect class="a" x="209.87" y="183.64" width="23.23" height="23.23"/><rect class="a" x="236.11" y="183.64" width="23.23" height="23.23"/><rect class="a" y="209.87" width="23.23" height="23.23"/><rect class="a" x="26.23" y="209.87" width="23.23" height="23.23"/><rect class="a" x="52.47" y="209.87" width="23.23" height="23.23"/><rect class="a" x="78.7" y="209.87" width="23.23" height="23.23"/><rect class="a" x="104.94" y="209.87" width="23.23" height="23.23"/><rect class="a" x="131.17" y="209.87" width="23.23" height="23.23"/><rect class="a" x="157.4" y="209.87" width="23.23" height="23.23"/><rect class="a" x="183.64" y="209.87" width="23.23" height="23.23"/><rect class="a" x="209.87" y="209.87" width="23.23" height="23.23"/><rect class="a" x="236.11" y="209.87" width="23.23" height="23.23"/><rect class="a" y="236.11" width="23.23" height="23.23"/><rect class="a" x="26.23" y="236.11" width="23.23" height="23.23"/><rect class="a" x="52.47" y="236.11" width="23.23" height="23.23"/><rect class="a" x="78.7" y="236.11" width="23.23" height="23.23"/><rect class="a" x="104.94" y="236.11" width="23.23" height="23.23"/><rect class="a" x="131.17" y="236.11" width="23.23" height="23.23"/><rect class="a" x="157.4" y="236.11" width="23.23" height="23.23"/><rect class="a" x="183.64" y="236.11" width="23.23" height="23.23"/><rect class="a" x="209.87" y="236.11" width="23.23" height="23.23"/><rect class="a" x="236.11" y="236.11" width="23.23" height="23.23"/><path class="b" d="M268,5.77c.1-.33.23-.62.62-.62s.54.3.62.62l2.31,8.12c.09.28-.24.6-.57.6a.73.73,0,0,1-.65-.6l-.44-1.44h-2.56l-.45,1.44a.73.73,0,0,1-.65.6c-.34,0-.66-.32-.58-.6ZM268.62,8h0l-.93,3.25h1.88Z"/><path class="b" d="M265.64,31.45H269c1.76,0,2.57,1.08,2.57,2.78a2.33,2.33,0,0,1-.79,1.89,2.6,2.6,0,0,1,.79,2.17,2.37,2.37,0,0,1-2.57,2.5h-3.36Zm1.2,4.07H269c.87,0,1.37-.38,1.37-1.29s-.28-1.58-1.37-1.58h-2.16Zm0,4.07H269c.87,0,1.37-.39,1.37-1.3s-.28-1.57-1.37-1.57h-2.16Z"/><path class="b" d="M268.87,67.09a1.79,1.79,0,0,1-1.8-1.14L266,63.72a2.69,2.69,0,0,1,0-2.6l1.1-2.21a1.81,1.81,0,0,1,1.85-1.16h2a.6.6,0,0,1,0,1.2h-2c-.52,0-.6,0-.83.51l-1.05,2.08a2,2,0,0,0-.25.92,1.68,1.68,0,0,0,.25.82l1,2.08c.24.49.36.53.9.53h2a.56.56,0,0,1,.6.6.57.57,0,0,1-.6.6Z"/><path class="b" d="M266.82,85.25h-.45c-.39,0-.73-.14-.73-.6s.33-.6.7-.6h2a1.81,1.81,0,0,1,1.81,1.2l1.06,2.12a2.8,2.8,0,0,1,.36,1.39,2.83,2.83,0,0,1-.35,1.32l-1.09,2.18a1.82,1.82,0,0,1-1.9,1.13h-2a.6.6,0,1,1,0-1.2h.58Zm1.2,6.94h.23c.5,0,.62-.06.84-.51l1.05-2.13a1.72,1.72,0,0,0,.23-.78,2,2,0,0,0-.3-1l-1-2c-.25-.52-.36-.51-.91-.51H268Z"/><path class="b" d="M271,118.49a.6.6,0,0,1,0,1.2h-5.33v-9.34H271a.6.6,0,0,1,0,1.2h-4.13v2.87h1.77a.6.6,0,0,1,0,1.2h-1.77v2.87Z"/><path class="b" d="M265.64,136.65H271a.6.6,0,1,1,0,1.2h-4.13v1.85h3a.6.6,0,1,1,0,1.2h-3v4.49a.6.6,0,0,1-1.2,0Z"/><path class="b" d="M269.21,169.24a.6.6,0,0,1,0-1.2h2.36v2.36a1.79,1.79,0,0,1-1.92,1.89h-2.06a1.83,1.83,0,0,1-1.38-.48,1.75,1.75,0,0,1-.57-1.48v-3a2.44,2.44,0,0,1,.63-1.75l1.41-1.81a1.84,1.84,0,0,1,1.68-.82H271a.6.6,0,1,1,0,1.2h-1.44c-.66,0-.61,0-1,.5l-1.31,1.66a2.28,2.28,0,0,0-.37,1.56v2.35c0,.66.15.87.83.87h1.91c.43,0,.79-.1.79-.63v-1.22Z"/><path class="b" d="M266.84,194.52V198a.6.6,0,0,1-1.2,0v-8.14a.6.6,0,0,1,1.2,0v3.47h3.53v-3.47a.6.6,0,0,1,1.2,0V198a.6.6,0,0,1-1.2,0v-3.47Z"/><path class="b" d="M269.21,223.69H271a.6.6,0,1,1,0,1.2h-4.73a.6.6,0,1,1,0-1.2H268v-6.94h-1.77a.6.6,0,1,1,0-1.2H271a.6.6,0,1,1,0,1.2h-1.76Z"/><path class="b" d="M271,249.15a2,2,0,0,1-.23,1.15,1.84,1.84,0,0,1-1.75.89h-.7a1.86,1.86,0,0,1-1.67-.7,1.79,1.79,0,0,1-.38-1.21v-1.74a.6.6,0,0,1,1.2,0v1.56c0,.69.15.89.85.89H269c.51,0,.82-.08.82-.65v-6.89a.6.6,0,1,1,1.2,0Z"/><path class="b" d="M13.36,265.38a1.21,1.21,0,0,1,1.21,1.2v6.93a1.18,1.18,0,0,1-1.21,1.2H9.79a1.18,1.18,0,0,1-1.22-1.2v-6.93a1.21,1.21,0,0,1,1.22-1.2Zm0,8.13v-6.93H9.79v6.93Z"/><path class="b" d="M39.6,273.51v-2.42a.53.53,0,0,1,.6-.6.54.54,0,0,1,.61.6v3a.55.55,0,0,1-.61.6H35.42a.6.6,0,1,1,0-1.2H37.2v-6.93H35.42a.6.6,0,1,1,0-1.2h3v8.13Z"/><path class="b" d="M62.27,273.51h4.17a.6.6,0,1,1,0,1.2H61.05V270.8a1.21,1.21,0,0,1,1.38-1.35h3.41v-2.87H61.66a.6.6,0,1,1,0-1.2h4a1.26,1.26,0,0,1,1,.34,1.25,1.25,0,0,1,.38,1.07v2.45a1.25,1.25,0,0,1-.38,1.07,1.26,1.26,0,0,1-1,.34H62.27Z"/><path class="b" d="M87.9,266.58a.6.6,0,1,1,0-1.2h4.18a1.18,1.18,0,0,1,1.21,1.2v2.3a1.41,1.41,0,0,1-.47,1.17,1.38,1.38,0,0,1,.47,1.16v2.3a1.18,1.18,0,0,1-1.21,1.2H87.9a.6.6,0,1,1,0-1.2h4.18v-2c0-.67-.27-.87-.61-.87H89.09a.6.6,0,1,1,0-1.2h2.38c.34,0,.61-.21.61-.88v-2Z"/><path class="b" d="M117.71,270.47V267a.61.61,0,0,1,1.22,0v3.47a.6.6,0,0,1,0,1.2v2.44c0,.39-.17.6-.61.6s-.61-.21-.61-.6v-2.44h-3.57V266a.55.55,0,0,1,.61-.6.54.54,0,0,1,.6.6v4.49Z"/><path class="b" d="M142.19,269.45h2.23a1.31,1.31,0,0,1,1,.33,1.18,1.18,0,0,1,.37,1v2.57a1.25,1.25,0,0,1-.29.94,1.18,1.18,0,0,1-1.06.4h-2.69a1.77,1.77,0,0,1-.8-.21l-.46-.21c-.33-.14-.7-.25-.7-.67a.61.61,0,0,1,.59-.6.94.94,0,0,1,.39.1l.36.15a1.92,1.92,0,0,0,.64.24h2.81v-2.86H141v-5.27h4.19a.6.6,0,0,1,0,1.2h-3Z"/><path class="b" d="M167.23,270.47h4.05c.61,0,.73.25.73.8V274c0,.56-.24.75-.79.75H166.8c-.57,0-.79-.2-.79-.75v-8c0-.27.1-.6.53-.6h.73a.6.6,0,0,1,.57.6.58.58,0,0,1-.61.6Zm0,1.2v1.84h3.57v-1.84Z"/><path class="b" d="M193.47,266.58a.61.61,0,0,1-1.22,0V266a.62.62,0,0,1,.61-.6h5.39v3.48c0,.42,0,.47-.32.76l-1.7,1.45c-.32.27-.34.3-.34.72v2.32c0,.39-.17.6-.61.6s-.61-.21-.61-.6v-2.89a.64.64,0,0,1,.32-.69l1.67-1.43c.4-.35.38-.34.38-.86v-1.66Z"/><path class="b" d="M222.67,265.38a.57.57,0,0,1,.61.6v3.47a1.28,1.28,0,0,1,.89.33,1.2,1.2,0,0,1,.32.88v2.85a1.12,1.12,0,0,1-1.21,1.2h-3.57a1.12,1.12,0,0,1-1.21-1.2v-2.85a1.2,1.2,0,0,1,.32-.88,1.28,1.28,0,0,1,.89-.33V266a.57.57,0,0,1,.61-.6Zm.61,8.13v-2.86h-3.57v2.86Zm-1.21-4.06v-2.87h-1.15v2.87Z"/><path class="b" d="M249.52,269.65h-4.18a.61.61,0,0,1-.6-.6V266a.61.61,0,0,1,.6-.6h4.79a.61.61,0,0,1,.6.6v8.13a.58.58,0,0,1-.6.6h-.61a.59.59,0,0,1-.61-.6.58.58,0,0,1,.61-.6Zm0-1.2v-1.87H246v1.87Z"/></svg>